<?xml version="1.0" encoding="UTF-8"?>
<svg id="Layer_1" xmlns="http://www.w3.org/2000/svg" version="1.1" viewBox="0 0 900 640">
  <!-- Generator: Adobe Illustrator 29.3.1, SVG Export Plug-In . SVG Version: 2.1.0 Build 151)  -->
  <defs>
    <style>
      .st0 {
        fill: #fff;
      }
    </style>
  </defs>
  <path class="st0" d="M347.7,8.2c39.1.3,82.7-1,121.5,1,71.2,3.7,110.9,36.1,107.5,110.6-2.2,49-24.6,84.7-72.8,98.2-5.5,1.5-14.7,2.2-19,4-1.2.5-2.5,1.2-1.2,2.2,3.9,0,7.7,1.7,11.2,3.3,38.8,18,29.5,74.6,28.8,109.1-.5,26.1-3,51.5,10.2,75.4,4.5-.3,12.3,1.9,15.3-1.9l76.5-128.9,21,132h132l-118.9,84.7,18.8,131.2-103.5-79-139.4,82,64.8-140.3-73.2-76.7c-23.3-46.4,29.7-140.6-45.2-153.8h-82.3s-30.1,143.8-30.1,143.8h-105L248.7,8.2c33,.2,66-.2,99,0ZM317.7,187.1c31.3-1.5,64.4,2,95.5,0,26.8-1.7,53.1-12.1,59-40.9,8.1-39.2-15.5-54-51-56.1-27.2-1.6-56.1,1.2-83.4.1l-20.1,96.9h0ZM558.2,431.1h-88.5l53.7,57.5-44.7,95.5,97.5-57,77,58-13.9-97,79.5-55.9h-88l-15.5-96-7.3,10.7-49.7,84.3h0Z"/>
</svg>